<svg width="515" height="110" version="1.1" viewBox="0 0 136.26 29.104" xmlns="http://www.w3.org/2000/svg">
 <path d="m14.552 0c-8.0369-4.3838e-7 -14.552 6.515-14.552 14.552-4.3838e-7 8.0369 6.515 14.552 14.552 14.552 8.0369 0 14.552-6.515 14.552-14.552 0-8.0369-6.515-14.552-14.552-14.552zm0.02997 5.2916h0.01033c2.0365 0.010988 4.0134 0.69299 5.6244 1.9404 3.5885 2.7786 4.6389 7.7456 2.481 11.734-2.1577 3.9877-6.8883 5.8226-11.175 4.3341-4.2865-1.4885-6.8672-5.8618-6.0962-10.331 4.6288-0.0037 9.4746-0.0041 14.173-0.0041-0.69325-2.2045-2.7368-3.7042-5.0477-3.7042-1.3379 3.78e-5 -2.6261 0.50688-3.6054 1.4185l-2.7072-2.9088c1.7217-1.6023 3.9896-2.4885 6.3428-2.4784zm-4.9349 11.245c0.80856 1.9988 2.749 3.307 4.905 3.3072 2.1563 5.6e-5 4.097-1.3083 4.9056-3.3072z" fill-rule="evenodd" stroke-width=".26458"/>
 <g>
  <text fill="#000000" font-family="Raleway" font-size="10.583px" font-weight="bold" style="line-height:1.25;shape-inside:url(#rect28);white-space:pre" xml:space="preserve"/>
  <text x="56.885094" y="10.583273" fill="#000000" font-family="sans-serif" font-size="10.583px" stroke-width=".26458" style="line-height:1.25" xml:space="preserve"><tspan x="56.885094" y="10.583273" stroke-width=".26458"/></text>
  <g transform="translate(-1.0583 .18365)" style="shape-inside:url(#rect38);white-space:pre" aria-label="oddEvan">
   <path d="m40.718 23.766c4.1402 0 6.8326-3.2004 6.8326-6.8834 0-3.683-2.6924-6.8834-6.8326-6.8834-4.1148 0-6.8326 3.2004-6.8326 6.8834 0 3.683 2.667 6.8834 6.8326 6.8834zm-3.9624-6.858c0-2.54 1.778-4.5212 3.9624-4.5212 2.2098 0 3.9624 1.9558 3.9624 4.4958s-1.7526 4.4958-3.9624 4.4958c-2.2098 0-3.9624-1.905-3.9624-4.4704z"/>
   <path d="m49.19 16.883c0 3.7592 2.6416 6.8834 6.3246 6.8834 1.8796 0 3.7338-0.9652 4.7498-2.667l0.0254 0.9906c0.0508 0.8636 0.8636 1.5494 1.905 1.5494 0.3302 0 0.635-0.0254 1.2192-0.127v-2.2352c-0.5588-0.0254-0.762-0.2794-0.762-0.9144v-15.392h-2.794v7.7724c-0.9144-1.5748-2.6416-2.7432-4.6736-2.7432-3.5052 0-5.9944 3.0988-5.9944 6.8834zm10.668 1.8542c-0.381 1.4986-2.1844 2.6416-3.6322 2.6416-2.3622 0-4.1402-2.0066-4.1402-4.445 0-2.3368 1.5748-4.5466 3.937-4.5466 1.524 0 3.2512 1.2446 3.8354 2.8702z"/>
   <path d="m65.363 16.883c0 3.7592 2.6416 6.8834 6.3246 6.8834 1.8796 0 3.7338-0.9652 4.7498-2.667l0.0254 0.9906c0.0508 0.8636 0.8636 1.5494 1.905 1.5494 0.3302 0 0.635-0.0254 1.2192-0.127v-2.2352c-0.5588-0.0254-0.762-0.2794-0.762-0.9144v-15.392h-2.794v7.7724c-0.9144-1.5748-2.6416-2.7432-4.6736-2.7432-3.5052 0-5.9944 3.0988-5.9944 6.8834zm10.668 1.8542c-0.381 1.4986-2.1844 2.6416-3.6322 2.6416-2.3622 0-4.1402-2.0066-4.1402-4.445 0-2.3368 1.5748-4.5466 3.937-4.5466 1.524 0 3.2512 1.2446 3.8354 2.8702z"/>
   <path d="m95.049 20.998h-9.525v-5.5118h8.0518v-2.3622h-8.0518v-5.1308h9.2964v-2.5146h-12.141v18.034h12.37z"/>
   <path d="m101.06 23.512h3.048l5.0546-13.284h-2.6924l-3.7846 10.693-3.7846-10.693h-2.8956z"/>
   <path d="m109.88 19.626c0 2.3368 1.905 4.1402 4.572 4.1402 1.8288 0 3.7592-0.8382 4.9276-2.3368l0.0762 0.762c0.1016 0.762 0.6858 1.4478 1.8796 1.4478 0.2794 0 0.66039-0.0254 1.1938-0.127v-2.2352c-0.5334-0.0254-0.73659-0.2794-0.73659-0.9144v-4.953c0-3.4544-2.1844-5.4102-5.7404-5.4102-1.9558 0-3.7084 0.5842-5.461 1.7526l0.9398 1.8796c1.4732-0.9652 2.7432-1.4986 4.2164-1.4986 2.0828 0 3.2512 1.1176 3.2512 2.9718v0.8382c-0.9652-0.3556-2.286-0.5334-3.4544-0.5334-3.3528 0-5.6642 1.6764-5.6642 4.2164zm8.4582 0.8128c-0.7112 0.7366-1.905 1.27-3.0988 1.27-1.778 0-2.7178-1.143-2.7178-2.3114 0-1.397 1.397-2.286 3.429-2.286 0.99059 0 2.1082 0.2032 3.048 0.5588v1.524c0 0.3302-0.254 0.8382-0.6604 1.2446z"/>
   <path d="m137.1 23.512v-8.1026c0-2.921-0.7874-5.4102-3.9624-5.4102-2.3368 0-4.3942 1.1176-5.4102 2.8956v-2.667h-2.54v13.284h2.794v-7.8994c0.58419-1.8034 2.3622-3.1242 3.9624-3.1242 1.5494 0 2.3622 1.0922 2.3622 3.5814v7.4422z"/>
  </g>
 </g>
</svg>
